<svg width="1563" height="1769" viewBox="0 0 1563 1769" fill="none" xmlns="http://www.w3.org/2000/svg">
<path fill-rule="evenodd" clip-rule="evenodd" d="M837 15.0429C802.656 -4.78531 760.344 -4.7853 726 15.0429L56.2781 401.707C21.9346 421.535 0.778076 458.179 0.778076 497.836V1271.16C0.778076 1310.82 21.9346 1347.46 56.2781 1367.29L726 1753.96C760.344 1773.79 802.656 1773.79 837 1753.96L1506.72 1367.29C1541.07 1347.46 1562.22 1310.82 1562.22 1271.16V497.836C1562.22 458.179 1541.07 421.535 1506.72 401.707L837 15.0429ZM641.105 401C641.105 384.431 654.536 371 671.105 371H892.895C909.464 371 922.895 384.431 922.895 401V732.105C922.895 738.732 928.268 744.105 934.895 744.105H1266C1282.57 744.105 1296 757.536 1296 774.105V995.895C1296 1012.46 1282.57 1025.9 1266 1025.9H934.895C928.268 1025.9 922.895 1031.27 922.895 1037.9V1369C922.895 1385.57 909.464 1399 892.895 1399H671.105C654.536 1399 641.105 1385.57 641.105 1369V1037.89C641.105 1031.27 635.732 1025.9 629.105 1025.9H298C281.431 1025.9 268 1012.46 268 995.895V774.105C268 757.536 281.431 744.105 298 744.105H629.105C635.732 744.105 641.105 738.732 641.105 732.105V401Z" fill="white"/>
</svg>
